<?xml version="1.0" encoding="UTF-8"?>
<svg id="Layer_1" data-name="Layer 1" xmlns="http://www.w3.org/2000/svg" viewBox="0 0 500 500">
  <defs>
    <style>
      .cls-1 {
        fill: #fff;
      }
    </style>
  </defs>
  <path d="m0,0h500v500H0c0-166.67,0-333.33,0-500Zm17.11,470.39h465.78V29.61H17.11v440.78Z"/>
  <path d="m17.11,470.39V29.61h465.78v440.78H17.11ZM250.31,74.28c-60.62,0-121.25,0-181.87,0q-4.1,0-4.11,4.01c0,114.48,0,228.96,0,343.43q0,4,4.11,4.01c121.04,0,242.08,0,363.12,0q4.1,0,4.11-4.01c0-114.48,0-228.96,0-343.43q0-4-4.11-4.01c-60.42,0-120.83,0-181.25,0Z"/>
  <path class="cls-1" d="m250.31,74.28c60.42,0,120.83,0,181.25,0q4.1,0,4.11,4.01c0,114.48,0,228.96,0,343.43q0,4-4.11,4.01c-121.04,0-242.08,0-363.12,0q-4.1,0-4.11-4.01c0-114.48,0-228.96,0-343.43q0-4,4.11-4.01c60.62,0,121.25,0,181.87,0Zm79.69,62.02c.18.35.36.71.55,1.06-1.21,1.09-2.34,2.29-3.65,3.25-4.27,3.15-8.46,6.43-12.93,9.28-17.64,11.22-35.38,22.3-53.09,33.41-1.37.86-2.39,1.63-2.34,3.58.19,8.22-.15,16.47.36,24.67.31,4.91,1.58,9.82,2.88,14.61,1.44,5.29,5.27,8.59,10.62,9.4,7.29,1.11,14.65,2.32,21.98,2.39,28.21.27,56.43.29,84.63,0,8.81-.09,17.61-1.46,26.4-2.35,4.11-.42,6.62-2.67,7.15-6.92.58-4.64,1.49-9.26,1.77-13.92,1.89-31.42,1.68-62.86.53-94.29-.27-7.46-1.46-14.89-2.2-22.34-.47-4.66-3.13-7.08-7.67-7.49-9.42-.85-18.84-2.17-28.28-2.33-25.09-.42-50.18-.53-75.27-.33-10.16.08-20.34,1.06-30.47,2.11-5.17.54-8.25,4.08-9.15,9.3-3.52,20.53-3.84,41.2-2.78,61.94.1,1.98.76,3.94,1.27,6.41,4.92-2.2,9.28-4.08,13.58-6.1,15.14-7.12,30.24-14.35,45.42-21.4,3.43-1.59,7.12-2.63,10.7-3.92Zm40.36,227.26c.49-.09.97-.17,1.46-.26,1.05,1.23,2.1,2.46,3.16,3.68,4.49,5.18,8.6,10.76,13.59,15.42,5.99,5.59,10.45,3.9,12.51-3.98.05-.2.13-.4.13-.61.04-3.09.72-6.33,0-9.23-3.92-15.98-11.08-30.45-21.57-43.14-1.57-1.9-4.32-3.64-6.7-3.92-25.31-2.91-50.65-3.32-76.04-.49-4.7.52-8.07,2.22-10.76,5.82-9.38,12.55-16.32,26.3-20.24,41.51-1.24,4.83-.51,9.53,1.72,13.95,1.69,3.34,4.27,4.31,7.5,2.45,2.58-1.48,5.09-3.34,7.07-5.54,3.83-4.24,7.23-8.86,10.87-13.28.79-.96,1.8-1.74,2.71-2.6.39.12.78.24,1.17.36,2.17,17.16.56,34.49,1.38,51.79h70.68c0-1.39,0-2.61,0-3.84.12-13.12.19-26.24.41-39.36.05-2.91.61-5.81.94-8.71Zm-166.83-.92c1.63,1.55,2.65,2.33,3.43,3.3,2.94,3.65,5.58,7.56,8.75,10.98,2.66,2.87,5.67,5.55,8.93,7.68,3.37,2.2,6.44,1.18,7.79-2.63,1.22-3.43,2.52-7.44,1.85-10.81-1.35-6.76-3.59-13.43-6.24-19.82-3.96-9.52-8.85-18.64-15.92-26.3-1.51-1.64-3.84-3.25-5.96-3.49-25.31-2.91-50.65-3.32-76.04-.59-5.35.57-8.93,2.73-11.89,6.8-8.58,11.8-15.02,24.65-19.09,38.69-1.32,4.55-1.3,9.01.23,13.5,2.03,5.96,5.67,7.41,10.62,3.61,3.43-2.64,6.4-5.93,9.31-9.16,2.43-2.7,4.4-5.81,6.71-8.62.72-.88,1.89-1.39,2.85-2.07.42,1,1.07,1.98,1.22,3.02.32,2.26.5,4.56.53,6.84.16,12.7.27,25.41.39,38.11.01,1.22,0,2.44,0,3.74h70.85c0-1.49-.01-2.74,0-3.98.2-14.26.37-28.53.64-42.79.03-1.68.56-3.35,1.03-5.99Zm-116.49-2.7c.33.09.65.17.98.26,1.09-1.31,2.37-2.51,3.22-3.95,3.02-5.09,5.93-10.26,8.83-15.43,3.16-5.61,6.03-11.41,9.46-16.85,3.84-6.07,9.32-10.27,16.35-12.31,2.29-.66,4.5-1.63,6.67-2.61,2.57-1.17,3.49-3.2,2.41-5.89-.78-1.92-1.7-3.79-2.56-5.68-5.88-12.82-4.08-24.78,3.67-36.31,2.57-3.82,5.18-7.98,6.26-12.36,1.76-7.12,2.4-14.53,3.27-21.85.27-2.29.85-3.19,3.36-3.15,9.79.12,19.58,0,29.37-.07,1.13,0,2.33-.03,3.36-.42,14.49-5.46,29.06-10.74,43.39-16.61,5.32-2.18,10.22-5.52,15.04-8.75,3.06-2.05,5.15-5.12,5.56-9.03.28-2.67-.89-4.39-3.5-4.53-2.99-.15-6.13-.32-8.98.4-10.37,2.64-20.66,5.57-30.94,8.55-7.28,2.11-14.36,5.36-21.77,6.47-8.67,1.3-17.61.91-26.44,1.13-14.35.36-28.74.03-43.04,1.07-14.61,1.06-21.4,7.81-24.15,22.13-.94,4.89-1.62,9.88-1.79,14.85-1.24,35.92-.95,71.84.68,107.75.2,4.41.86,8.8,1.31,13.2Zm246.58-102.53c-14.65,0-26.38,11.67-26.43,26.3-.05,14.57,11.68,26.46,26.23,26.59,14.6.13,26.58-11.83,26.58-26.55,0-14.62-11.74-26.34-26.37-26.35Zm-167.23,52.89c14.5.03,26.3-11.76,26.43-26.39.13-14.55-11.63-26.42-26.25-26.5-14.64-.08-26.5,11.59-26.58,26.15-.08,14.73,11.75,26.71,26.39,26.74Zm-27.09-141.49c.03-12.2-7.26-22.72-17.12-25.68-10.36-3.12-20.99,1.56-26.3,11.57-5.69,10.73-3.85,23.83,5.26,30.22,14.39,10.1,15.31,9.6,28.62,1.24,6.62-4.16,9.31-10.65,9.53-17.35Zm148.68,228.85h-75.96v5.22h75.96v-5.22Zm-200.34,5.15h32.3v-5.2h-32.3v5.2Zm292.38-.01h32.29v-5.17h-32.29v5.17Z"/>
  <path d="m330,136.3c-3.57,1.29-7.26,2.32-10.7,3.92-15.18,7.05-30.27,14.28-45.42,21.4-4.3,2.02-8.67,3.9-13.58,6.1-.5-2.48-1.16-4.43-1.27-6.41-1.06-20.73-.74-41.41,2.78-61.94.89-5.22,3.97-8.76,9.15-9.3,10.12-1.05,20.3-2.03,30.47-2.11,25.09-.2,50.18-.09,75.27.33,9.44.16,18.86,1.48,28.28,2.33,4.54.41,7.21,2.83,7.67,7.49.74,7.45,1.93,14.88,2.2,22.34,1.15,31.43,1.36,62.87-.53,94.29-.28,4.66-1.2,9.27-1.77,13.92-.53,4.25-3.04,6.5-7.15,6.92-8.79.89-17.59,2.26-26.4,2.35-28.21.3-56.42.28-84.63,0-7.34-.07-14.7-1.28-21.98-2.39-5.35-.81-9.18-4.12-10.62-9.4-1.3-4.78-2.57-9.69-2.88-14.61-.51-8.2-.17-16.44-.36-24.67-.04-1.95.97-2.73,2.34-3.58,17.71-11.11,35.45-22.19,53.09-33.41,4.47-2.84,8.66-6.13,12.93-9.28,1.31-.96,2.44-2.16,3.65-3.25-.18-.35-.36-.71-.55-1.06Z"/>
  <path d="m370.36,363.56c-.33,2.9-.89,5.81-.94,8.71-.22,13.12-.29,26.24-.41,39.36-.01,1.22,0,2.44,0,3.84h-70.68c-.82-17.3.79-34.63-1.38-51.79-.39-.12-.78-.24-1.17-.36-.91.86-1.92,1.64-2.71,2.6-3.63,4.42-7.04,9.04-10.87,13.28-1.98,2.2-4.5,4.06-7.07,5.54-3.23,1.86-5.81.89-7.5-2.45-2.23-4.41-2.97-9.12-1.72-13.95,3.92-15.21,10.87-28.95,20.24-41.51,2.69-3.6,6.06-5.3,10.76-5.82,25.39-2.83,50.73-2.42,76.04.49,2.38.27,5.13,2.02,6.7,3.92,10.49,12.69,17.66,27.16,21.57,43.14.71,2.9.04,6.15,0,9.23,0,.2-.08.41-.13.61-2.06,7.89-6.52,9.57-12.51,3.98-4.98-4.65-9.09-10.24-13.59-15.42-1.06-1.22-2.11-2.45-3.16-3.68-.49.09-.97.17-1.46.26Z"/>
  <path d="m203.53,362.64c-.47,2.64-1,4.31-1.03,5.99-.26,14.26-.44,28.53-.64,42.79-.02,1.24,0,2.49,0,3.98h-70.85c0-1.3.01-2.52,0-3.74-.12-12.7-.23-25.41-.39-38.11-.03-2.28-.21-4.58-.53-6.84-.15-1.04-.8-2.01-1.22-3.02-.96.68-2.13,1.19-2.85,2.07-2.31,2.81-4.28,5.92-6.71,8.62-2.91,3.24-5.88,6.53-9.31,9.16-4.95,3.8-8.58,2.35-10.62-3.61-1.53-4.48-1.55-8.94-.23-13.5,4.07-14.04,10.5-26.89,19.09-38.69,2.95-4.06,6.53-6.22,11.89-6.8,25.4-2.72,50.73-2.32,76.04.59,2.11.24,4.44,1.85,5.96,3.49,7.07,7.66,11.96,16.78,15.92,26.3,2.65,6.38,4.9,13.06,6.24,19.82.67,3.37-.63,7.38-1.85,10.81-1.35,3.81-4.42,4.83-7.79,2.63-3.27-2.13-6.28-4.81-8.93-7.68-3.17-3.43-5.81-7.34-8.75-10.98-.78-.97-1.8-1.75-3.43-3.3Z"/>
  <path d="m87.05,359.94c-.45-4.4-1.11-8.79-1.31-13.2-1.63-35.91-1.91-71.82-.68-107.75.17-4.97.85-9.97,1.79-14.85,2.76-14.32,9.55-21.07,24.15-22.13,14.3-1.04,28.69-.72,43.04-1.07,8.83-.22,17.76.18,26.44-1.13,7.41-1.11,14.49-4.37,21.77-6.47,10.28-2.97,20.57-5.91,30.94-8.55,2.85-.73,5.99-.55,8.98-.4,2.61.13,3.79,1.86,3.5,4.53-.41,3.91-2.51,6.99-5.56,9.03-4.82,3.23-9.72,6.57-15.04,8.75-14.33,5.86-28.89,11.15-43.39,16.61-1.03.39-2.24.41-3.36.42-9.79.07-19.58.19-29.37.07-2.5-.03-3.08.86-3.36,3.15-.88,7.32-1.51,14.73-3.27,21.85-1.09,4.38-3.69,8.54-6.26,12.36-7.75,11.53-9.55,23.49-3.67,36.31.87,1.89,1.79,3.76,2.56,5.68,1.09,2.69.17,4.72-2.41,5.89-2.17.99-4.38,1.95-6.67,2.61-7.03,2.04-12.51,6.24-16.35,12.31-3.44,5.44-6.31,11.23-9.46,16.85-2.9,5.16-5.81,10.33-8.83,15.43-.86,1.45-2.14,2.64-3.22,3.95-.33-.09-.65-.17-.98-.26Z"/>
  <path d="m333.63,257.4c14.64,0,26.37,11.73,26.37,26.35,0,14.72-11.97,26.68-26.58,26.55-14.55-.13-26.27-12.02-26.23-26.59.05-14.63,11.78-26.31,26.43-26.3Z"/>
  <path d="m166.4,310.29c-14.65-.03-26.47-12-26.39-26.74.08-14.56,11.94-26.23,26.58-26.15,14.62.08,26.37,11.95,26.25,26.5-.13,14.64-11.93,26.42-26.43,26.39Z"/>
  <path d="m139.31,168.8c-.22,6.69-2.92,13.19-9.53,17.35-13.32,8.37-14.24,8.86-28.62-1.24-9.11-6.4-10.95-19.49-5.26-30.22,5.3-10,15.94-14.68,26.3-11.57,9.87,2.97,17.15,13.49,17.12,25.68Z"/>
  <path d="m287.98,397.65v5.22h-75.96v-5.22h75.96Z"/>
  <path d="m87.64,402.8v-5.2h32.3v5.2h-32.3Z"/>
  <path d="m380.02,402.79v-5.17h32.29v5.17h-32.29Z"/>
</svg>